<?xml version="1.0" encoding="UTF-8" standalone="no"?>
<svg
   inkscape:export-ydpi="576"
   inkscape:export-xdpi="576"
   inkscape:export-filename="/media/taufikramadhan/Data/Tr Design Studio/Project Design/TR Creative Design/Icon Design/Project Hiring/Icon Icons/008 - Weather And Season/Send/3 - Flat/30 - Smog.png"
   width="64pt"
   height="64pt"
   viewBox="0 0 22.577778 22.577778"
   version="1.1"
   id="svg831"
   inkscape:version="1.1.1 (1:1.1+202109281943+c3084ef5ed)"
   sodipodi:docname="30 - Smog.svg"
   xmlns:inkscape="http://www.inkscape.org/namespaces/inkscape"
   xmlns:sodipodi="http://sodipodi.sourceforge.net/DTD/sodipodi-0.dtd"
   xmlns="http://www.w3.org/2000/svg"
   xmlns:svg="http://www.w3.org/2000/svg"
   xmlns:rdf="http://www.w3.org/1999/02/22-rdf-syntax-ns#"
   xmlns:cc="http://creativecommons.org/ns#"
   xmlns:dc="http://purl.org/dc/elements/1.1/">
  <defs
     id="defs825">
    <pattern
       id="EMFhbasepattern"
       patternUnits="userSpaceOnUse"
       width="6"
       height="6"
       x="0"
       y="0" />
    <pattern
       id="EMFhbasepattern-9"
       patternUnits="userSpaceOnUse"
       width="6"
       height="6"
       x="0"
       y="0" />
    <pattern
       id="EMFhbasepattern-0"
       patternUnits="userSpaceOnUse"
       width="6"
       height="6"
       x="0"
       y="0" />
    <pattern
       id="EMFhbasepattern-7"
       patternUnits="userSpaceOnUse"
       width="6"
       height="6"
       x="0"
       y="0" />
    <pattern
       id="EMFhbasepattern-2"
       patternUnits="userSpaceOnUse"
       width="6"
       height="6"
       x="0"
       y="0" />
    <pattern
       id="EMFhbasepattern-98"
       patternUnits="userSpaceOnUse"
       width="6"
       height="6"
       x="0"
       y="0" />
    <pattern
       id="EMFhbasepattern-6"
       patternUnits="userSpaceOnUse"
       width="6"
       height="6"
       x="0"
       y="0" />
    <pattern
       id="EMFhbasepattern-01"
       patternUnits="userSpaceOnUse"
       width="6"
       height="6"
       x="0"
       y="0" />
    <pattern
       id="EMFhbasepattern-07"
       patternUnits="userSpaceOnUse"
       width="6"
       height="6"
       x="0"
       y="0" />
    <pattern
       id="EMFhbasepattern-8"
       patternUnits="userSpaceOnUse"
       width="6"
       height="6"
       x="0"
       y="0" />
    <pattern
       id="EMFhbasepattern-4"
       patternUnits="userSpaceOnUse"
       width="6"
       height="6"
       x="0"
       y="0" />
    <pattern
       id="EMFhbasepattern-40"
       patternUnits="userSpaceOnUse"
       width="6"
       height="6"
       x="0"
       y="0" />
    <pattern
       id="EMFhbasepattern-08"
       patternUnits="userSpaceOnUse"
       width="6"
       height="6"
       x="0"
       y="0" />
    <pattern
       id="EMFhbasepattern-04"
       patternUnits="userSpaceOnUse"
       width="6"
       height="6"
       x="0"
       y="0" />
    <pattern
       id="EMFhbasepattern-014"
       patternUnits="userSpaceOnUse"
       width="6"
       height="6"
       x="0"
       y="0" />
    <pattern
       id="EMFhbasepattern-27"
       patternUnits="userSpaceOnUse"
       width="6"
       height="6"
       x="0"
       y="0" />
    <pattern
       id="EMFhbasepattern-09"
       patternUnits="userSpaceOnUse"
       width="6"
       height="6"
       x="0"
       y="0" />
    <pattern
       id="EMFhbasepattern-5"
       patternUnits="userSpaceOnUse"
       width="6"
       height="6"
       x="0"
       y="0" />
    <pattern
       id="EMFhbasepattern-018"
       patternUnits="userSpaceOnUse"
       width="6"
       height="6"
       x="0"
       y="0" />
  </defs>
  <sodipodi:namedview
     id="base"
     pagecolor="#ffffff"
     bordercolor="#666666"
     borderopacity="1.0"
     inkscape:pageopacity="0.0"
     inkscape:pageshadow="2"
     inkscape:zoom="5.0032032"
     inkscape:cx="41.873174"
     inkscape:cy="53.965427"
     inkscape:document-units="pt"
     inkscape:current-layer="layer1"
     showgrid="false"
     units="pt"
     inkscape:window-width="1366"
     inkscape:window-height="705"
     inkscape:window-x="0"
     inkscape:window-y="31"
     inkscape:window-maximized="1"
     inkscape:pagecheckerboard="true"
     inkscape:showpageshadow="false"
     inkscape:object-paths="true"
     inkscape:snap-intersection-paths="true"
     inkscape:snap-smooth-nodes="true"
     inkscape:snap-midpoints="true"
     showguides="false"
     inkscape:snap-bbox="true"
     inkscape:bbox-nodes="true"
     inkscape:snap-nodes="false"
     inkscape:snap-global="true"
     inkscape:document-rotation="0">
    <inkscape:grid
       type="xygrid"
       id="grid1378" />
    <sodipodi:guide
       position="0.97013831,21.607643"
       orientation="78.000048,0"
       id="guide1380"
       inkscape:locked="false" />
    <sodipodi:guide
       position="0.97013831,0.97013129"
       orientation="0,78.000005"
       id="guide1382"
       inkscape:locked="false" />
    <sodipodi:guide
       position="21.607639,0.97013129"
       orientation="-78.000048,0"
       id="guide1384"
       inkscape:locked="false" />
    <sodipodi:guide
       position="21.607639,21.607643"
       orientation="0,-78.000005"
       id="guide1386"
       inkscape:locked="false" />
  </sodipodi:namedview>
  <metadata
     id="metadata828">
    <rdf:RDF>
      <cc:Work
         rdf:about="">
        <dc:format>image/svg+xml</dc:format>
        <dc:type
           rdf:resource="http://purl.org/dc/dcmitype/StillImage" />
      </cc:Work>
    </rdf:RDF>
  </metadata>
  <g
     inkscape:label="Icon"
     inkscape:groupmode="layer"
     id="layer1"
     transform="translate(0,-274.42223)">
    <g
       id="g1019272"
       transform="matrix(1.2188302,0,0,1.2188302,-110.56431,163.85794)"
       style="stroke-width:0.820459">
      <path
         style="color:#000000;fill:#d0e3eb;stroke-width:0.820459;stroke-linecap:round;stroke-linejoin:round;-inkscape-stroke:none"
         d="m 95.15625,93.935547 c -0.738465,-0.214232 -1.516779,0.214607 -1.730469,0.953125 a 0.26460996,0.26460996 0 0 0 -0.002,0.0078 c -0.857045,0.209213 -1.5678,0.815991 -1.816406,1.673828 -0.380079,1.313908 0.379752,2.693956 1.693359,3.074219 a 0.26460996,0.26460996 0 0 0 0.0098,0.002 c 0.0095,0.0024 0.01972,0.0036 0.0293,0.0059 0.03898,0.108313 0.06993,0.222381 0.132812,0.316406 a 0.26460996,0.26460996 0 0 0 0.113281,0.09374 l 2.041016,0.90431 A 0.26460996,0.26460996 0 0 0 96,100.72461 v -6.080079 a 0.26460996,0.26460996 0 0 0 -0.05859,-0.166015 c -0.139855,-0.173351 -0.412771,-0.434997 -0.783203,-0.542969 a 0.26460996,0.26460996 0 0 0 -0.002,0 z"
         id="path816402" />
      <path
         style="color:#000000;fill:#aabfd2;fill-opacity:1;stroke-width:0.820459;stroke-linecap:round;stroke-linejoin:round;-inkscape-stroke:none"
         d="m 94.792969,94.671875 c -0.412427,-0.110169 -0.869053,-0.06236 -1.267578,0.167969 -0.397608,0.229961 -0.66891,0.601183 -0.779297,1.013672 a 0.2645835,0.2645835 0 0 0 0.1875,0.324218 0.2645835,0.2645835 0 0 0 0.324218,-0.1875 c 0.0757,-0.282864 0.256552,-0.534845 0.53125,-0.693359 a 0.26460996,0.26460996 0 0 0 0.002,0 c 0.274416,-0.158603 0.582336,-0.18885 0.865234,-0.113281 a 0.2645835,0.2645835 0 0 0 0.324219,-0.1875 0.2645835,0.2645835 0 0 0 -0.1875,-0.324219 z"
         id="path19386" />
      <path
         id="path966555"
         style="fill:#aabfd2;fill-opacity:1;stroke-width:0.820459;stroke-linecap:round;stroke-linejoin:round"
         d="m 93.388717,98.35342 c 9.4e-4,0.165173 -0.09651,0.383352 -0.210208,0.503051 -0.159954,0.1684 -0.296657,0.359137 -0.404811,0.566925 0.163246,0.09192 0.339588,0.166891 0.527101,0.221176 l 0.28524,0.418108 2.040703,0.90434 0.373127,-0.24283 v -6.080264 c 1.7e-5,-0.06033 -0.02058,-0.118862 -0.05839,-0.165883 -0.139862,-0.17291 -0.412992,-0.434708 -0.783424,-0.542679 -5.33e-4,-2e-6 -0.0011,-2e-6 -0.0016,0 h -5.29e-4 c -0.06874,-0.01992 -0.137769,-0.03437 -0.206706,-0.04341 l 2.6e-5,-8e-6 c -0.975498,1.21425 -1.560553,2.754498 -1.560629,4.426604 z"
         sodipodi:nodetypes="ccccccccccsccccc" />
      <path
         style="color:#000000;fill:#2276bc;stroke-width:0.820459;stroke-linecap:round;stroke-linejoin:round;-inkscape-stroke:none"
         d="m 100.47656,92.056641 c -3.455842,-1.4e-5 -6.263515,2.805874 -6.263669,6.261718 0,0.274287 0.01876,0.548388 0.05469,0.820313 a 0.26460996,0.26460996 0 0 0 0.148438,0.205078 l 9.117181,4.30859 a 0.26460996,0.26460996 0 0 0 0.25196,-0.0156 c 1.35638,-0.84408 2.33844,-2.17406 2.74609,-3.718751 a 0.26460996,0.26460996 0 0 0 0.004,-0.121094 l -1.08203,-5.236328 a 0.26460996,0.26460996 0 0 0 -0.0508,-0.109375 c -1.18726,-1.51163 -3.00364,-2.394541 -4.92578,-2.394531 z"
         id="path816354" />
      <path
         id="path1017653"
         style="color:#000000;fill:#1f5b87;fill-opacity:1;stroke-width:0.820459;stroke-linecap:round;stroke-linejoin:round;-inkscape-stroke:none"
         d="m 106.19094,99.511241 c -0.44502,1.652609 -1.5157,3.076199 -2.99413,3.982189 l 0.33642,0.15916 c 0.0813,0.0377 0.17626,0.0317 0.25218,-0.016 1.35638,-0.84408 2.33843,-2.17394 2.74608,-3.718634 z"
         sodipodi:nodetypes="cccccc" />
      <path
         style="color:#000000;fill:#d0e3eb;stroke-width:0.820459;stroke-linecap:round;stroke-linejoin:round;-inkscape-stroke:none"
         d="m 101.43974,106.00399 c 1.36786,1e-4 2.48254,-1.11456 2.48243,-2.48243 -6e-4,-0.89234 -0.51521,-1.67193 -1.2793,-2.11132 v -0.002 -0.002 -0.002 -0.002 c -3e-5,-0.76874 -0.62969,-1.39676 -1.39844,-1.39648 -0.25016,2.9e-4 -0.46856,0.12653 -0.68164,0.25195 -0.606808,-0.673714 -1.448562,-1.093247 -2.361328,-1.095701 h -0.0039 c -0.35359,0.0027 -0.69977,0.07895 -1.033204,0.195313 -0.366104,-0.366104 -1.037558,-0.759636 -1.658499,-0.745994 -1.367393,-8.3e-5 -2.481888,1.113076 -2.482422,2.480472 -3e-6,6.7e-4 -3e-6,10e-4 0,0.002 0.0014,0.45063 0.166477,0.87574 0.398438,1.25977 -0.288182,0.54189 -0.473633,1.13486 -0.476563,1.75 -3e-6,6.7e-4 -3e-6,10e-4 0,0.002 1.02e-4,2.08994 1.701078,3.78899 3.791016,3.78906 1.169879,-0.003 2.241488,-0.57868 2.955078,-1.49609 0.190044,0.0941 0.381574,0.19634 0.595704,0.19726 h 0.002 c 0.41815,-10e-4 0.73654,-0.28926 0.99805,-0.60351 z"
         id="path816360"
         sodipodi:nodetypes="cccssscccccccsccscccsccc" />
      <path
         id="path995533"
         style="color:#000000;fill:#1f5b87;fill-opacity:1;stroke-width:0.820459;stroke-linecap:round;stroke-linejoin:round;-inkscape-stroke:none"
         d="m 100.47655,92.056399 c -2.662827,-1e-5 -4.94031,1.66614 -5.845637,4.011642 1.106963,-1.772319 3.075156,-2.953319 5.316471,-2.953308 v 5.29e-4 c 1.922136,-1.1e-5 3.738536,0.882539 4.925796,2.39417 a 0.26460996,0.26460996 0 0 1 0.0506,0.109553 l 1.08211,5.236375 a 0.26460996,0.26460996 0 0 1 -0.004,0.12092 c -0.0595,0.22532 -0.13169,0.44612 -0.21497,0.66146 0.33,-0.52826 0.58243,-1.10704 0.74414,-1.719792 a 0.26460996,0.26460996 0 0 0 0.004,-0.120922 l -1.0821,-5.236374 a 0.26460996,0.26460996 0 0 0 -0.0506,-0.109554 c -1.18726,-1.51163 -3.00366,-2.39418 -4.9258,-2.394169 z" />
      <path
         style="color:#000000;fill:#d0e3eb;stroke-width:0.820459;stroke-linecap:round;stroke-linejoin:round;-inkscape-stroke:none"
         d="m 105.16016,94.351562 c -0.53786,0.0045 -1.00297,0.299884 -1.37891,0.675782 -0.14945,-0.07882 -0.30199,-0.16008 -0.47266,-0.160157 -0.57431,2.46e-4 -1.04524,0.470612 -1.04492,1.044922 a 0.26460996,0.26460996 0 0 0 0,0.002 c 5.5e-4,0.106751 0.0498,0.203817 0.082,0.304688 -0.58103,0.394566 -0.9736,1.016709 -0.97851,1.728516 a 0.26460996,0.26460996 0 0 0 0,0.002 c -3e-5,1.185109 0.96723,2.152277 2.15234,2.152337 a 0.26460996,0.26460996 0 0 0 0.002,0 c 0.0772,-8.5e-4 0.15393,-0.0143 0.23047,-0.0234 0.24724,0.48884 0.70626,0.84331 1.26758,0.84375 a 0.26460996,0.26460996 0 0 0 0.002,0 c 0.54537,-10e-4 0.99644,-0.33763 1.25,-0.80665 0.003,1.1e-4 0.005,-9e-5 0.008,0 a 0.26460996,0.26460996 0 0 0 0.0117,0 c 1.18511,-5e-5 2.15041,-0.967222 2.15039,-2.152335 -0.002,-0.864432 -0.54349,-1.612995 -1.33203,-1.947266 -0.18862,-0.940279 -0.97111,-1.65914 -1.94532,-1.662109 a 0.26460996,0.26460996 0 0 0 -0.004,-0.002 z"
         id="path816366" />
      <path
         style="color:#000000;fill:#50b86b;stroke-width:0.820459;stroke-linecap:round;stroke-linejoin:round;-inkscape-stroke:none"
         d="m 99.978516,97.101562 c -0.433501,-9e-6 -0.789313,0.357516 -0.789063,0.791016 1.87e-4,0.433199 0.355864,0.789073 0.789063,0.789063 0.433184,-1.1e-5 0.790824,-0.355878 0.791014,-0.789063 2.5e-4,-0.433486 -0.35753,-0.791005 -0.791014,-0.791016 z"
         id="path816372" />
      <path
         style="color:#000000;fill:#50b86b;stroke-width:0.820459;stroke-linecap:round;stroke-linejoin:round;-inkscape-stroke:none"
         d="m 100.70898,93.324219 c -0.58458,-8e-6 -1.064418,0.479864 -1.064449,1.064453 4.18e-4,0.58432 0.480129,1.062508 1.064449,1.0625 0.58431,-9e-6 1.06404,-0.478192 1.06446,-1.0625 -3e-5,-0.584578 -0.47988,-1.064444 -1.06446,-1.064453 z"
         id="path816378" />
      <path
         style="color:#000000;fill:#aabfd2;fill-opacity:1;stroke-width:0.820459;stroke-linecap:round;stroke-linejoin:round;-inkscape-stroke:none"
         d="m 93.912109,101.16992 c -0.30217,0.30211 -0.490202,0.72153 -0.490234,1.18164 -3.1e-5,0.46014 0.188057,0.88149 0.490234,1.1836 a 0.2645835,0.2645835 0 0 0 0.373047,0 0.2645835,0.2645835 0 0 0 0,-0.375 c -0.206986,-0.20694 -0.334005,-0.49139 -0.333984,-0.8086 2.2e-5,-0.31722 0.126991,-0.59969 0.333984,-0.80664 a 0.2645835,0.2645835 0 0 0 0,-0.375 0.2645835,0.2645835 0 0 0 -0.373047,0 z"
         id="path108941" />
      <path
         style="color:#000000;fill:#aabfd2;fill-opacity:1;stroke-width:0.820459;stroke-linecap:round;stroke-linejoin:round;-inkscape-stroke:none"
         d="m 100.57617,100.28711 c -0.44427,-0.11902 -0.897464,-0.0476 -1.267576,0.16602 a 0.2645835,0.2645835 0 0 0 -0.09766,0.36328 0.2645835,0.2645835 0 0 0 0.361329,0.0957 c 0.253457,-0.14625 0.560817,-0.19536 0.867187,-0.11328 0.30624,0.082 0.54707,0.27763 0.69336,0.53125 a 0.2645835,0.2645835 0 0 0 0.36133,0.0977 0.2645835,0.2645835 0 0 0 0.0977,-0.36132 c -0.21359,-0.37027 -0.57125,-0.66026 -1.01563,-0.7793 z"
         id="path109254" />
      <path
         style="color:#000000;fill:#aabfd2;fill-opacity:1;stroke-width:0.820459;stroke-linecap:round;stroke-linejoin:round;-inkscape-stroke:none"
         d="m 103.16992,98.550781 a 0.2645835,0.2645835 0 0 0 -0.1875,0.324219 c 0.11063,0.412683 0.38096,0.785678 0.7793,1.015625 0.39837,0.229845 0.85459,0.276895 1.26758,0.166015 a 0.2645835,0.2645835 0 0 0 0.1875,-0.324218 0.2645835,0.2645835 0 0 0 -0.32422,-0.185547 c -0.28275,0.07591 -0.59236,0.04333 -0.86719,-0.115234 -0.2745,-0.158461 -0.45548,-0.410717 -0.53125,-0.69336 a 0.2645835,0.2645835 0 0 0 -0.32422,-0.1875 z"
         id="path109256" />
      <path
         id="path816396"
         style="color:#000000;fill:#50b86b;stroke-width:3.10095;stroke-linecap:round;stroke-linejoin:round;-inkscape-stroke:none"
         d="m 362.90625,354.98047 c -4.04974,4.10333 -6.61341,9.67627 -6.8125,15.8418 h 12.21094 c 1.81465,0 3.30664,-1.4916 3.30664,-3.30665 0,-1.81387 -1.49199,-3.30859 -3.30664,-3.30859 h -1.22461 c -0.74108,0 -1.30664,-0.56505 -1.30664,-1.30664 0,-0.74159 0.56503,-1.30664 1.30664,-1.30664 h 4.7832 c 1.81414,0 3.30664,-1.49155 3.30664,-3.30664 0,-1.81451 -1.49198,-3.30664 -3.30664,-3.30664 z"
         transform="scale(0.26458334)" />
      <path
         id="path939655"
         style="color:#000000;fill:#aabfd2;fill-opacity:1;stroke-width:0.820459;stroke-linecap:round;stroke-linejoin:round;-inkscape-stroke:none"
         d="m 105.06025,94.35557 c -0.51245,0 -0.91872,0.332001 -1.279,0.671774 -0.36416,-0.226245 -0.69496,-0.174475 -1.04691,0.0137 -0.283,0.187552 -0.47098,0.508601 -0.47077,0.871265 v 0.0021 c 2.6e-4,0.07342 0.024,0.142195 0.0491,0.210838 0.31467,-0.612537 0.93167,-0.824484 1.46864,-0.568441 1.058,-1.198704 2.54183,-0.161596 2.79932,0.98857 0.78854,0.334272 1.3297,1.082736 1.3317,1.94717 0,0.458491 -0.14489,0.88416 -0.39068,1.234032 0.48583,-0.340847 0.82565,-0.877022 0.90331,-1.492932 0.068,-0.556144 -0.11306,-1.144585 -0.44644,-1.56581 -0.23379,-0.296061 -0.53585,-0.493263 -0.86822,-0.651639 -0.11683,-0.593806 -0.47212,-1.056835 -0.9519,-1.382853 -0.33747,-0.214693 -0.71159,-0.277774 -1.09815,-0.277774 z"
         sodipodi:nodetypes="cccsscccccccccc" />
      <path
         id="path970854"
         style="color:#000000;fill:#aabfd2;fill-opacity:1;stroke-width:0.820459;stroke-linecap:round;stroke-linejoin:round;-inkscape-stroke:none"
         d="m 95.564195,98.611036 c -0.0195,-2.64e-4 -0.03899,9.3e-5 -0.05839,5.29e-4 -0.818775,-5e-5 -1.546799,0.399037 -1.999361,1.012857 0.411964,-0.303842 0.920628,-0.483724 1.470194,-0.48369 0.62094,-0.01365 1.292709,0.379587 1.658813,0.745691 0.333433,-0.116363 0.679421,-0.192638 1.03301,-0.195336 h 0.0036 c 0.912765,0.0024 1.754804,0.422333 2.361609,1.096053 0.21308,-0.12542 0.43145,-0.25189 0.68161,-0.25218 0.76875,-2.6e-4 1.39834,0.62756 1.39837,1.3963 v 0.002 0.002 0.002 0.002 c 0.76409,0.4394 1.27891,1.21865 1.27951,2.11099 4e-5,0.54932 -0.17996,1.05782 -0.48369,1.46968 0.61367,-0.45259 1.01292,-1.18033 1.01285,-1.99885 -5.3e-4,-0.89234 -0.51541,-1.67159 -1.2795,-2.11098 v -0.002 -0.002 -0.002 -0.002 c -3e-5,-0.76874 -0.62962,-1.39658 -1.39837,-1.39629 -0.25016,2.6e-4 -0.46853,0.12676 -0.68161,0.25218 -0.606808,-0.673719 -1.448847,-1.093607 -2.361612,-1.09606 h -0.0036 c -0.353589,0.0027 -0.699577,0.07897 -1.03301,0.195337 -0.354664,-0.354664 -0.996162,-0.735182 -1.60042,-0.74621 z m 3.59823,8.316804 c -0.02683,0.0345 -0.05434,0.0683 -0.08217,0.1018 0.03555,-0.0294 0.07033,-0.0597 0.104905,-0.0904 -0.0076,-0.004 -0.01516,-0.008 -0.02273,-0.0114 z" />
      <path
         id="path973363"
         style="color:#000000;fill:#349951;fill-opacity:1;stroke-width:0.820459;stroke-linecap:round;stroke-linejoin:round;-inkscape-stroke:none"
         d="m 96.018952,93.921918 c -0.165272,0.16746 -0.321445,0.344059 -0.467154,0.529166 h 2.307868 c 0.480129,0 0.874882,0.394793 0.874882,0.874882 0,0.10278 -0.01855,0.201615 -0.05168,0.293524 0.33696,-0.121926 0.580843,-0.445604 0.580843,-0.82269 0,-0.48009 -0.394754,-0.874882 -0.874882,-0.874882 z m 0.575159,2.27893 c -0.196218,0 -0.345715,0.149503 -0.345715,0.345715 0,0.196213 0.149638,0.345715 0.345715,0.345715 h 0.324011 c 0.480126,0 0.874882,0.395481 0.874882,0.875401 0,0.102777 -0.01855,0.201612 -0.05168,0.293521 0.33699,-0.121928 0.580843,-0.445612 0.580843,-0.822688 0,-0.47992 -0.394756,-0.8754 -0.874882,-0.8754 h -0.324011 c -0.127694,0 -0.235789,-0.06384 -0.29559,-0.162264 z" />
      <path
         id="path981528"
         style="color:#000000;fill:#349951;fill-opacity:1;stroke-width:0.820459;stroke-linecap:round;stroke-linejoin:round;-inkscape-stroke:none"
         d="m 100.7089,93.324137 c -0.42831,-5e-6 -0.800593,0.257627 -0.968928,0.625284 0.134291,-0.06159 0.283268,-0.09612 0.439768,-0.09612 0.58458,1.1e-5 1.0645,0.479957 1.06453,1.064536 -1.1e-4,0.155773 -0.0345,0.304059 -0.0956,0.4377 0.367,-0.168053 0.62446,-0.539142 0.62477,-0.966867 -3e-5,-0.584578 -0.47995,-1.064525 -1.06454,-1.064535 z" />
      <path
         id="path984070"
         style="color:#000000;fill:#349951;fill-opacity:1;stroke-width:0.820459;stroke-linecap:round;stroke-linejoin:round;-inkscape-stroke:none"
         d="m 99.978521,97.101562 c -0.345323,0.0089 -0.638013,0.244785 -0.734838,0.56224 0.07156,-0.02164 0.147561,-0.03307 0.225828,-0.03307 0.43348,1.3e-5 0.791419,0.357682 0.791169,0.791167 -4e-5,0.07821 -0.0119,0.153781 -0.0336,0.225309 0.3235,-0.09886 0.5626,-0.400635 0.56275,-0.754475 2.5e-4,-0.433486 -0.35768,-0.791155 -0.791163,-0.791168 -0.0068,0 -0.01341,-1.72e-4 -0.02016,0 z" />
    </g>
  </g>
</svg>
